<svg xmlns="http://www.w3.org/2000/svg" id="Layer_1" width="270" height="272" viewBox="0 0 270 272.2"><style type="text/css">  
	.st0{fill:#346BA2;}
	.st1{fill:#65BDDF;}
</style><g id="lettermark"><path class="st0" d="M121.7 65.2c-3.5 0.2-6.6 0.3-9.6 0.4 -2.2 0.1-4.4 0.1-6.6 0 -1.7-0.1-3.5-0.5-5.1-1.1 -2.2-0.7-3.7-2.6-3.8-4.9 -0.2-2.2 0.9-4.2 2.9-5.2 2-1.1 4.2-2 6.4-2.5 5.2-1.1 10.4-1.8 15.6-2.7l3.7-0.6c0.3-1.3 0.7-2.4 1-3.6 2.5-9.9 5.8-19.6 9.9-29 1.3-2.7 2.8-5.2 4.5-7.6 0.8-1 1.8-1.9 3-2.5 1.6-1.1 3.8-1 5.2 0.3 1.6 1.3 1.7 3 1.2 4.8 -0.3 0.9-0.7 1.8-1.1 2.7 -4.4 10.3-7.9 21-10.5 31.9 0 0.4 0 0.8 0 1.2 0.9 0 1.7 0.1 2.5 0 7.8-0.7 15.5-1.6 23.3-2.3 2-0.1 4-0.1 5.9 0 1.1 0.1 2.2 0.3 3.2 0.7 2.1 0.6 3.5 2.5 3.7 4.6 0.3 2-0.6 4.1-2.4 5.1 -2.2 1.3-4.5 2.2-7 2.8 -9 1.7-18 3.2-27 4.7 -1.5 0.3-3 0.5-4.8 0.8 0 2.5-0.1 4.9 0 7.3 0.7 10.1 2.4 20.1 5 29.9 1.4 5.6 3.2 11.2 5.4 16.6 1.6 3.6 3.5 7.1 5.8 10.3 8 11.8 19.5 17.7 33.4 19.4 7.9 1 15.2-1.3 22.6-3.6 12.4-3.8 19.6-12.7 24.5-24.1 3.9-9.1 5.5-19.1 4.4-29 -0.8-8.1-2.8-16-6-23.5 -1-2.4-0.7-4.4 1.1-5.6 2-1.3 4.6-0.8 5.9 1.2 0.1 0.1 0.1 0.2 0.1 0.2 2.3 3.7 4.7 7.5 6.1 11.6 1.7 5.2 2.8 10.6 3.5 16.1 2.1 16.2-1.4 31.3-9.4 45.3 -6.1 10.6-14.5 19-25.7 24.3 -6.8 3.2-13.6 6.2-21.2 7 -15.8 1.7-29.5-3.2-41.7-12.8 -11.3-8.9-18.1-20.8-22-34.4 -4.8-16.2-6.8-33-5.9-49.8C121.6 68.4 121.6 67 121.7 65.2"/><path class="st0" d="M17.3 91.4c0.1-24.8 7.2-47.2 23.3-66.4C52.3 11.2 67.3 3.2 85.2 0.7c3.5-0.6 7.1-0.4 10.5 0.5 1 0.3 2 0.7 3 1.2 1.6 0.8 2.5 2.6 2.2 4.4 -0.3 1.8-1.8 3.2-3.6 3.4 -1 0.2-2 0.2-3 0.2C78.1 11 64.9 17.8 55 30.6 47.4 40.5 42.8 51.9 40 64c-3.7 15.6-4.3 31.3-0.3 47 2.4 9 6.2 17.7 11.2 25.6 4.2 6.8 10.2 11.7 16.6 16.3 6.1 4.2 12.6 7.6 19.6 10 8.8 3.2 17.7 2.3 26.6 0.2 7.2-1.7 14.1-4.3 19.9-9.1 0.5-0.4 1.1-0.8 1.7-1 1.6-0.7 3.4-0.3 4.6 0.9 1.2 1.3 1.8 3 0.9 4.5 -0.9 1.6-2.1 3.1-3.4 4.3 -3.1 2.8-6.4 5.4-9.6 8 -4.1 3.3-8.8 5.3-13.7 7.1 -20.5 7.6-39.6 4-57.6-7.2 -11-6.8-19.9-16.5-25.7-28.1C24 129.4 18.8 115.8 17.6 101c-0.1-1.1-0.2-2.2-0.2-3.3C17.3 95.6 17.3 93.5 17.3 91.4"/></g><g id="tush"><path class="st0" d="M165 237c-0.8 6.1-2.3 12-1.3 18 1.2 7 6 11.6 12.8 13.1 2.4 0.5 4.8 0.3 7.1-0.5 0.7-0.3 1.4-0.1 1.9 0.5 0.4 0.6 0.2 1.4-0.3 1.9 -0.3 0.4-0.8 0.6-1.3 0.8 -3.4 0.7-6.8 1.5-10.2 0.4 -4.1-1.2-7.7-3.6-10.4-6.8 -3.6-4.4-5.6-10-5.6-15.7 0-3.3 0.3-6.6 0.4-9.9 0-0.5 0.1-1 0.1-1.6 -0.5-0.1-0.9-0.1-1.2-0.2 -1.1-0.1-2.2-0.1-3.3-0.2 -0.6-0.1-1.3-0.3-1.9-0.5 -0.9-0.4-1.4-1.3-1.3-2.2 0-0.9 0.6-1.8 1.5-2 1.1-0.3 2.2-0.5 3.4-0.6 1.2-0.1 2.5-0.1 3.9-0.2 0.1-0.5 0.3-1 0.4-1.5 0.8-2.7 1.6-5.4 2.6-8 0.5-1.3 1.2-2.5 1.9-3.7 0.3-0.5 0.7-1 1.1-1.4 0.7-0.8 1.9-1.1 2.9-0.7 1 0.6 1.4 1.7 1.1 2.7 -0.6 2.5-1.3 4.9-1.9 7.4 -0.4 1.7-0.9 3.5-1.3 5.3 0.2 0.1 0.5 0.2 0.8 0.2 2.3 0.1 4.6 0.1 6.9 0.2 1.6 0.1 3.2 0.1 4.8 0.3 0.5 0 1 0.2 1.4 0.4 0.8 0.3 1.3 1.1 1.2 1.9 -0.1 0.8-0.8 1.3-1.6 1.4 -2.3 0.3-4.7 0.6-7 0.8 -2.1 0.2-4.3 0.2-6.5 0.3C165.8 236.8 165.5 236.9 165 237"/><path class="st0" d="M248.2 237.8l1-1.3c1.3-1.7 3-3.1 5-4 4.5-2.1 9.8-0.6 12.5 3.5 1.8 2.7 2.8 5.9 3.1 9.2 0.5 4.9 0.1 9.8-1.2 14.6 -0.8 3.3-1.7 6.6-2.6 9.9 -0.1 0.3-0.2 0.6-0.3 0.8 -0.3 0.8-1.2 1.1-2 0.8 -0.5-0.2-0.9-0.8-0.9-1.4 0-0.6 0-1.1 0.1-1.6 0.3-6.2 0.7-12.3 0.9-18.5 0-2.8-0.3-5.5-0.7-8.2 -0.1-0.9-0.4-1.9-0.9-2.7 -1.1-2.3-3.7-3.5-6.2-2.7 -1.4 0.4-2.7 1.2-3.6 2.3 -2.9 3.1-4.7 7.1-5.1 11.3 -0.3 4.3-0.6 8.6-1 12.9 -0.1 0.9-0.2 1.9-0.4 2.8 -0.1 0.4-0.3 0.9-0.5 1.2 -0.5 1-1.7 1.3-2.7 0.8 -0.4-0.2-0.8-0.6-0.9-1 -0.4-0.8-0.6-1.7-0.6-2.6 -0.2-3.1-0.4-6.2-0.3-9.3 0.3-9.7 0.7-19.3 1.1-29 0.2-1.9 0.4-3.9 0.8-5.8 0.1-0.6 0.3-1.2 0.7-1.6 0.5-0.9 1.7-1.2 2.7-0.7 0.3 0.2 0.6 0.5 0.8 0.9 0.4 0.8 0.6 1.6 0.7 2.4 0.5 4.7 0.7 9.5 0.4 14.3 0 0.8-0.1 1.7-0.1 2.5L248.2 237.8"/><path class="st0" d="M193.1 244.4c-0.3 4.2-0.2 8.3 0.3 12.5 0.1 0.9 0.3 1.8 0.5 2.7 0.2 0.6 0.4 1.2 0.6 1.8 1.4 3 3.8 3.7 6.5 2 1.2-0.8 2.2-1.7 3.1-2.8 1.8-2.2 3.1-4.8 3.9-7.5 1.5-4.4 2.4-9 2.7-13.7 0-0.6-0.1-1.3-0.2-1.9 -0.2-0.7 0.1-1.3 0.7-1.7 0.6-0.4 1.5-0.3 2 0.2 0.6 0.5 1 1.3 0.9 2.2 -0.1 2.1-0.2 4.2-0.5 6.3 -0.6 4.7-2 9.3-4 13.6 -1 2.1-2.3 4.1-3.6 6 -1.4 1.8-3.2 3.2-5.3 4.1 -4.3 1.9-9.2 0.3-11.7-3.6 -1.2-1.9-1.9-4-2.2-6.2 -0.6-3.6-0.7-7.3-0.3-11 0.4-4.2 1.1-8.4 2.1-12.6 0.2-0.8 0.5-1.5 0.9-2.2 0.4-1.1 1.6-1.7 2.7-1.4 1.1 0.3 1.8 1.4 1.6 2.6C193.5 237 193.3 240.1 193.1 244.4"/><path class="st0" d="M229.6 231.8c3.2 0.5 5.9 2.4 7.5 5.2 0.3 0.5 0.5 1.1 0.5 1.7 0.1 0.9-0.4 1.7-1.3 1.8 -0.3 0.1-0.7 0-1-0.2 -0.4-0.1-0.7-0.4-1.1-0.6 -1.2-0.6-2.4-1.1-3.7-1.6 -2-0.8-4.3 0.2-5.1 2.2 -0.2 0.5-0.3 1.1-0.3 1.7 0.1 1.3 0.3 2.7 0.8 3.9 0.9 2.3 2 4.6 3.1 6.8 1.2 2.3 2 4.8 2.4 7.4 0.3 2.1 0.2 4.2-0.5 6.2 -1.3 3.9-5.5 6-9.3 4.7 -0.9-0.3-1.7-0.8-2.4-1.4 -0.8-0.6-1.5-1.3-2.2-2.1 -0.3-0.4-0.6-0.8-0.7-1.3 -0.3-0.7-0.1-1.4 0.5-1.9 0.6-0.4 1.4-0.4 1.9 0.2 0.5 0.4 0.9 1 1.3 1.4 1.2 1.4 3.1 2 4.9 1.5 0.9-0.1 1.7-0.8 1.9-1.7 0.2-0.9 0.3-1.8 0.2-2.6 -0.2-1.9-0.9-3.6-2-5.1 -0.9-1.3-1.9-2.5-2.7-3.8 -1.2-1.9-2.4-3.9-3.5-6 -1.1-2.3-1.5-4.9-1-7.5C219 235.3 224 231.4 229.6 231.8"/></g><g id="clean"><path class="st1" d="M15.7 271.8c-8.7 0-15.7-7-15.7-15.7 0-8.7 7-15.7 15.7-15.7 3.1 0 6 0.9 8.6 2.6h0.1v0.1c0.9 0.6 1.4 1.5 1.4 2.6 0 1.7-1.4 3.1-3.1 3.1 0 0 0 0 0 0 -0.6 0-1.2-0.1-1.7-0.4 -1.5-1.1-3.4-1.6-5.2-1.6 -5.2 0-9.4 4.2-9.4 9.4 0 5.2 4.2 9.4 9.4 9.4 1.9 0 3.7-0.6 5.2-1.6 0.5-0.3 1.1-0.4 1.7-0.4 1.7 0 3.1 1.4 3.1 3.1 0 0 0 0 0 0 0 1-0.5 2-1.4 2.6C21.8 270.9 18.8 271.8 15.7 271.8"/><path class="st1" d="M30.9 268.8v-56.9c0-4 6.2-4 6.2 0v56.9C37 272.8 30.9 272.8 30.9 268.8"/><path class="st1" d="M42.4 258.9c-1.5-8.6 4.1-16.8 12.7-18.4 0.3-0.1 0.7-0.1 1-0.2h0.3c0.3 0 0.7-0.1 1-0.1h1.3c0.3 0.1 0.6 0.1 0.9 0.1h0.2c0.3 0.1 0.6 0.1 0.9 0.2 0.1 0 0.2 0.1 0.3 0.1 0.3 0 0.6 0.1 0.9 0.2h0.3c0.3 0.1 0.6 0.3 0.9 0.3 0.1 0 0.2 0.1 0.3 0.1l0.8 0.2c0 0 0 0.1 0.1 0.1 5.8 2.5 9.6 8.1 9.6 14.4v0.1c0 1.7-1.4 3.1-3.2 3.2H49c0.2 0.4 0.3 0.9 0.5 1.2 0.3 0.5 0.6 1.1 1 1.5 1.2 1.4 2.7 2.5 4.5 3.1 0.6 0.2 1.2 0.3 1.8 0.4 0.9 0.1 1.9 0.1 2.8-0.2 0.3 0 0.6-0.1 0.9-0.2 0.1 0 0.2 0 0.3-0.1 0.2 0 0.4-0.1 0.6-0.2 0.1 0 0.1 0 0.2-0.1 0.3-0.1 0.5-0.3 0.8-0.3 0 0 0.1 0 0.1-0.1 0 0 0 0 0 0 0.3-0.1 0.4-0.3 0.7-0.3 0-0.1 0.1-0.1 0.2-0.2 0.2-0.1 0.3-0.3 0.5-0.3l0.2-0.2c0.2-0.1 0.4-0.3 0.5-0.4l0.1-0.1c1.2-1.3 3.2-1.3 4.5-0.1 1.3 1.2 1.3 3.2 0.1 4.5 -0.1 0.1-0.1 0.1-0.2 0.2l-0.1 0.1c-0.3 0.2-0.4 0.4-0.7 0.6l-0.2 0.2c-0.3 0.2-0.5 0.4-0.8 0.6 0 0-0.1 0-0.1 0.1 0 0 0 0 0 0l-0.8 0.5c-0.1 0-0.1 0-0.2 0.1 -0.3 0.2-0.6 0.3-0.9 0.5h0c-0.3 0.2-0.5 0.3-0.9 0.4 0 0.1-0.1 0.1-0.2 0.1 -0.3 0.2-0.7 0.3-1 0.4 -0.3 0.2-0.7 0.2-0.9 0.3 -0.1 0.1-0.2 0.1-0.3 0.1 -0.3 0.1-0.7 0.2-1.1 0.3C52.2 273.1 44 267.5 42.4 258.9M66.9 252.9c-0.9-2.5-2.7-4.4-5.1-5.5 -0.3-0.1-0.5-0.2-0.8-0.3h-0.3c-0.2-0.1-0.3-0.1-0.5-0.1 -0.1 0-0.2-0.1-0.3-0.1 -0.3-0.1-0.6-0.1-0.9-0.2h-2c-0.3 0.1-0.6 0.1-0.9 0.2 -0.9 0.1-1.8 0.4-2.7 0.9 -0.5 0.3-1.1 0.6-1.5 1 -1.4 1.1-2.4 2.6-3 4.2L66.9 252.9 66.9 252.9z"/><path class="st1" d="M110.4 243.5v25.2c0.1 1.8-1.2 3.3-3 3.3s-3.3-1.2-3.3-3c0-0.1 0-0.2 0-0.4 -7 5.2-16.9 3.9-22.1-3.1 -5.2-7-3.9-16.9 3.1-22.1 5.6-4.2 13.4-4.2 19 0 -0.1-1.8 1.2-3.3 3-3.3 1.8-0.1 3.3 1.2 3.3 3C110.4 243.2 110.4 243.3 110.4 243.5M104.1 256.1c0-5.2-4.2-9.4-9.4-9.4 -5.2 0-9.4 4.2-9.4 9.4s4.2 9.4 9.4 9.4C99.9 265.5 104.1 261.3 104.1 256.1 104.1 256.1 104.1 256.1 104.1 256.1"/><path class="st1" d="M115.6 268.8v-25.4c0-4 6.3-4 6.3 0v0.1c0.4-0.3 0.9-0.6 1.3-0.9 5.9-3.6 13.4-2.9 18.6 1.5 7 6 5.4 16.2 5.4 24.5 0 4-6.3 4-6.3 0v-11.3c0-5.7-3.3-10.9-9.5-10.9 -6.2 0-9.5 5.2-9.5 10.9v11.4C121.8 272.8 115.6 272.8 115.6 268.8"/></g></svg>