<svg xmlns="http://www.w3.org/2000/svg" width="3.72in" height="2.59in" viewBox="0 0 267.57 186.37">
  <title>logo-bg</title>
  <path d="M445.25,317L266.36,354.1a26,26,0,0,1-29.43-22L211.27,222.77a26,26,0,0,1,22-29.43l200.13-17.07a26,26,0,0,1,29.43,22l4.43,89.29A26,26,0,0,1,445.25,317Z" transform="translate(-200 -168)" style="fill: #64bcdf"/>
  <path d="M434.25,309L255.36,346.1a26,26,0,0,1-29.43-22L200.27,214.77a26,26,0,0,1,22-29.43l200.13-17.07a26,26,0,0,1,29.43,22l4.43,89.29A26,26,0,0,1,434.25,309Z" transform="translate(-200 -168)" style="fill: #fff"/>
</svg>
