<svg xmlns="http://www.w3.org/2000/svg" width="258" height="186" viewBox="0 0 257.8 185.8"><path d="M128.9 0.2C57.7 0.2 0 35.7 0 79.5c0 17.5 9.2 33.7 24.9 46.9L1.2 185.6l55.4-40.4c20.6 8.6 45.5 13.6 72.4 13.6 71.2 0 128.9-35.5 128.9-79.3S200.1 0.2 128.9 0.2z" fill="#64BCDF"/><path d="M254 79.2c-2.2-48-68.8-79.2-129-78C55.4 2.6 1 39.2 2.4 79.9c0.5 14.4 10.3 28.9 26.5 41L7.1 175.1l51.6-37.7c21 8.6 46.2 13.9 73.1 13.9C201.5 151.3 255.6 112.8 254 79.2z" fill="#fff"/><path d="M254 79.2c-10.8 30.4-81.6 55.7-135.3 52.8C64.4 129.2 20.9 110 2.4 79.9c0.5 14.4 10.3 28.9 26.5 41L7.1 175.1l51.6-37.7c21 8.6 46.2 13.9 73.1 13.9C201.5 151.3 255.6 112.8 254 79.2z" fill="#f5f5f5"/></svg>