<svg xmlns="http://www.w3.org/2000/svg" width="937" height="922" viewBox="0 0 937.4 922.3"><style type="text/css">  
	.st0{fill:#C4E7EB;}
</style><polygon class="st0" points="457.5 387.3 436.8 70.5 491.5 70.5 470.8 387.3 "/><polygon class="st0" points="437.5 392.9 314.5 14.2 367.4 0 450.3 389.5 "/><polygon class="st0" points="478.7 389.5 552.6 33.7 605.5 47.9 491.6 392.9 "/><polygon class="st0" points="406.2 418.7 93 168.4 129.4 127.5 415.1 408.7 "/><polygon class="st0" points="397.3 438.3 95.8 338.8 116.3 288.1 402.3 425.9 "/><polygon class="st0" points="422 404.2 230.2 151.2 275.9 121.1 433.1 396.9 "/><polygon class="st0" points="544.4 460.8 861.8 463.6 857.8 518.2 543.4 474.1 "/><polygon class="st0" points="540.2 440.4 927.1 345.9 937.3 399.7 542.7 453.5 "/><polygon class="st0" points="539.3 484.8 886.8 590.9 867.9 642.2 534.7 497.3 "/><polygon class="st0" points="516.9 407.4 789.7 113.6 827.8 152.9 526.2 416.9 "/><polygon class="st0" points="498.9 396.9 643.5 114.3 690.5 142.3 510.3 403.7 "/><polygon class="st0" points="530.1 424.1 796.7 251.7 823.4 299.5 536.6 435.7 "/><polygon class="st0" points="480 535 500.7 851.8 445.9 851.8 466.7 535 "/><polygon class="st0" points="500 529.4 622.9 908.2 570.1 922.3 487.2 532.8 "/><polygon class="st0" points="458.7 532.8 384.8 888.6 332 874.5 445.9 529.4 "/><polygon class="st0" points="531.2 503.7 844.4 753.9 808.1 794.8 522.4 513.6 "/><polygon class="st0" points="515.5 518.1 707.2 771.1 661.5 801.3 504.4 525.4 "/><polygon class="st0" points="394.7 462.1 77.2 458.1 81.5 403.5 395.7 448.8 "/><polygon class="st0" points="397.2 481.9 10.4 576.4 0.2 522.7 394.7 468.9 "/><polygon class="st0" points="420.5 514.9 147.8 808.7 109.6 769.5 411.3 505.4 "/><polygon class="st0" points="438.5 525.4 293.9 808 246.9 780 427.1 518.6 "/><polygon class="st0" points="407.3 498.2 140.8 670.7 114.1 622.9 400.8 486.6 "/></svg>